<svg width="36" height="36" viewBox="0 0 36 36" fill="none" xmlns="http://www.w3.org/2000/svg">
<path fill-rule="evenodd" clip-rule="evenodd" d="M10.9952 3.00012H24.9902C30.0902 3.00012 33.0002 5.88012 33.0002 10.9951V25.0051C33.0002 30.0901 30.1052 33.0001 25.0052 33.0001H10.9952C5.88024 33.0001 3.00024 30.0901 3.00024 25.0051V10.9951C3.00024 5.88012 5.88024 3.00012 10.9952 3.00012ZM17.9874 19.7555L20.9997 22.7678C21.4982 23.2451 22.2831 23.2451 22.771 22.7572C23.2589 22.2693 23.2589 21.4844 22.771 20.9965L19.7587 17.9842L22.7498 14.9932C23.2377 14.5053 23.2377 13.7204 22.7498 13.2325C22.2619 12.7446 21.477 12.7446 20.9891 13.2325L17.998 16.2235L14.9964 13.2219C14.763 12.9885 14.4448 12.8612 14.116 12.8506C13.7872 12.8612 13.4701 12.9875 13.2357 13.2219C12.7478 13.7098 12.7478 14.4947 13.2251 14.9932L16.2267 17.9948L13.2251 20.9965C12.7372 21.4844 12.7372 22.2693 13.2251 22.7572C13.713 23.2451 14.4979 23.2451 14.9858 22.7572L17.9874 19.7555Z" fill="#818DBB"/>
</svg>
