<svg width="36" height="36" viewBox="0 0 36 36" fill="none" xmlns="http://www.w3.org/2000/svg">
<path fill-rule="evenodd" clip-rule="evenodd" d="M10.9952 3.00012H24.9902C30.0902 3.00012 33.0002 5.88012 33.0002 10.9951V25.0051C33.0002 30.0901 30.1052 33.0001 25.0052 33.0001H10.9952C5.88024 33.0001 3.00024 30.0901 3.00024 25.0051V10.9951C3.00024 5.88012 5.88024 3.00012 10.9952 3.00012ZM19.2529 19.2376H12.5029C11.8129 19.2376 11.2579 18.6826 11.2579 17.9926C11.2579 17.3026 11.8129 16.7476 12.5029 16.7476L16.7479 16.7476H23.4829C24.1729 16.7476 24.7279 17.3026 24.7279 17.9926C24.7279 18.6826 24.1729 19.2376 23.4829 19.2376H19.2529Z" fill="#818DBB"/>
</svg>
