<svg width="24" height="24" viewBox="0 0 24 24" fill="none" xmlns="http://www.w3.org/2000/svg">
<path d="M17.625 3.56458C17.625 3.87754 17.8787 4.13333 18.1917 4.13333H20C20.5523 4.13333 21 4.58105 21 5.13333V19C21 19.5523 20.5523 20 20 20H4C3.44772 20 3 19.5523 3 19V5.13333C3 4.58105 3.44772 4.13333 4 4.13333H5.80833C6.12129 4.13333 6.375 3.87754 6.375 3.56458C6.375 3.25392 6.62684 3 6.9375 3C7.24816 3 7.5 3.25392 7.5 3.56458C7.5 3.87754 7.75371 4.13333 8.06667 4.13333H15.9333C16.2463 4.13333 16.5 3.87754 16.5 3.56458C16.5 3.25392 16.7518 3 17.0625 3C17.3732 3 17.625 3.25392 17.625 3.56458ZM6.375 5.83542C6.375 5.52246 6.12129 5.26667 5.80833 5.26667H5.125C4.57272 5.26667 4.125 5.71438 4.125 6.26667V6.53333C4.125 7.08562 4.57272 7.53333 5.125 7.53333H18.875C19.4273 7.53333 19.875 7.08562 19.875 6.53333V6.26667C19.875 5.71438 19.4273 5.26667 18.875 5.26667H18.1917C17.8787 5.26667 17.625 5.52246 17.625 5.83542C17.625 6.14608 17.3732 6.4 17.0625 6.4C16.7518 6.4 16.5 6.14608 16.5 5.83542C16.5 5.52246 16.2463 5.26667 15.9333 5.26667H8.06667C7.75371 5.26667 7.5 5.52246 7.5 5.83542C7.5 6.14608 7.24816 6.4 6.9375 6.4C6.62684 6.4 6.375 6.14608 6.375 5.83542ZM4.125 17.8667C4.125 18.419 4.57272 18.8667 5.125 18.8667H18.875C19.4273 18.8667 19.875 18.419 19.875 17.8667V9.66667C19.875 9.11438 19.4273 8.66667 18.875 8.66667H5.125C4.57272 8.66667 4.125 9.11438 4.125 9.66667V17.8667Z" fill="black" stroke="black" stroke-width="0.4"/>
</svg>
