<svg width="33" height="32" viewBox="0 0 33 32" fill="none" xmlns="http://www.w3.org/2000/svg">
<path fill-rule="evenodd" clip-rule="evenodd" d="M5.0011 18.3828V18.0908C5.04394 17.227 5.3208 16.3899 5.80314 15.6661C6.606 14.7966 7.1556 13.731 7.39429 12.5813C7.39429 11.6926 7.39429 10.7913 7.4719 9.90266C7.87292 5.62451 12.103 2.66663 16.2814 2.66663H16.3849C20.5633 2.66663 24.7934 5.62451 25.2073 9.90266C25.285 10.7913 25.2073 11.6926 25.272 12.5813C25.5139 13.7337 26.063 14.8026 26.8632 15.6788C27.3491 16.3962 27.6264 17.2302 27.6652 18.0908V18.3701C27.6941 19.5307 27.2944 20.6624 26.5398 21.5565C25.5426 22.6019 24.1895 23.2523 22.7365 23.3845C18.476 23.8416 14.1774 23.8416 9.91683 23.3845C8.46552 23.2466 7.11434 22.5972 6.11361 21.5565C5.37067 20.6617 4.97632 19.5367 5.0011 18.3828Z" stroke="#222222" stroke-width="2" stroke-linecap="round" stroke-linejoin="round"/>
<path d="M13.0732 27.8024C13.7389 28.6379 14.7165 29.1787 15.7896 29.305C16.8627 29.4312 17.9429 29.1326 18.791 28.4752C19.0519 28.2807 19.2866 28.0547 19.4896 27.8024" stroke="#222222" stroke-width="2" stroke-linecap="round" stroke-linejoin="round"/>
</svg>
