<svg width="24" height="24" viewBox="0 0 24 24" fill="none" xmlns="http://www.w3.org/2000/svg">
<rect x="2.33325" y="2.33337" width="19.3333" height="19.3333" rx="4" stroke="black" stroke-width="2"/>
<path d="M18.9681 6.44756C18.8562 6.35102 18.72 6.28686 18.5743 6.26197C18.4286 6.23708 18.2789 6.25241 18.1412 6.30631L5.475 11.2632C5.2451 11.3527 5.0505 11.5145 4.92048 11.7242C4.79046 11.9338 4.73205 12.1801 4.75405 12.4258C4.77604 12.6715 4.87724 12.9035 5.04243 13.0867C5.20762 13.27 5.42785 13.3946 5.67 13.4419L8.75 14.0463V17.5001C8.74999 17.7492 8.82446 17.9927 8.96385 18.1993C9.10324 18.4059 9.30119 18.566 9.53227 18.6593C9.76336 18.7525 10.017 18.7746 10.2608 18.7226C10.5045 18.6706 10.7271 18.547 10.9 18.3676L12.3169 16.8982L14.6469 18.9376C14.8094 19.0805 15.0063 19.1788 15.2182 19.2228C15.4301 19.2668 15.6498 19.255 15.8558 19.1886C16.0618 19.1222 16.2471 19.0035 16.3934 18.844C16.5397 18.6845 16.6422 18.4898 16.6906 18.2788L19.2294 7.24443C19.2624 7.1004 19.2555 6.9501 19.2095 6.80968C19.1635 6.66927 19.08 6.54407 18.9681 6.44756ZM13.2131 9.84506L9.32625 12.6307L7.17437 12.2088L13.2131 9.84506ZM10.25 16.8788V15.0844L11.1875 15.9063L10.25 16.8788ZM15.3225 17.5363L10.705 13.4882L17.3494 8.72693L15.3225 17.5363Z" fill="black"/>
</svg>
