<svg width="24" height="24" viewBox="0 0 24 24" fill="none" xmlns="http://www.w3.org/2000/svg">
<path d="M4.318 20.536C5.636 22 7.758 22 12 22C16.243 22 18.364 22 19.682 20.535C21 19.072 21 16.714 21 12C21 7.286 21 4.929 19.682 3.464C18.364 2 16.242 2 12 2C7.757 2 5.636 2 4.318 3.464C3 4.93 3 7.286 3 12C3 16.714 3 19.072 4.318 20.536Z" stroke="black" stroke-width="1.5"/>
<path d="M7 8C7 7.535 7 7.303 7.051 7.112C7.11919 6.85787 7.25303 6.62614 7.43909 6.44009C7.62514 6.25403 7.85687 6.12019 8.111 6.052C8.304 6 8.536 6 9 6H15C15.465 6 15.697 6 15.888 6.051C16.1421 6.11919 16.3739 6.25303 16.5599 6.43909C16.746 6.62514 16.8798 6.85687 16.948 7.111C17 7.304 17 7.536 17 8C17 8.464 17 8.697 16.949 8.888C16.8808 9.14213 16.747 9.37386 16.5609 9.55991C16.3749 9.74597 16.1431 9.87981 15.889 9.948C15.697 10 15.464 10 15 10H9C8.535 10 8.303 10 8.112 9.949C7.85787 9.88081 7.62614 9.74697 7.44009 9.56091C7.25403 9.37486 7.12019 9.14313 7.052 8.889C7 8.696 7 8.464 7 8Z" stroke="black" stroke-width="1.5"/>
<path d="M8.5 14V17M7 15.5H10" stroke="black" stroke-width="1.5" stroke-linecap="round" stroke-linejoin="round"/>
<path d="M16.333 13.833C16.333 14.0539 16.2452 14.2658 16.089 14.422C15.9328 14.5782 15.7209 14.666 15.5 14.666C15.2791 14.666 15.0672 14.5782 14.911 14.422C14.7548 14.2658 14.667 14.0539 14.667 13.833C14.667 13.6121 14.7548 13.4002 14.911 13.244C15.0672 13.0878 15.2791 13 15.5 13C15.7209 13 15.9328 13.0878 16.089 13.244C16.2452 13.4002 16.333 13.6121 16.333 13.833ZM16.333 17.167C16.333 17.3879 16.2452 17.5998 16.089 17.756C15.9328 17.9122 15.7209 18 15.5 18C15.2791 18 15.0672 17.9122 14.911 17.756C14.7548 17.5998 14.667 17.3879 14.667 17.167C14.667 16.9461 14.7548 16.7342 14.911 16.578C15.0672 16.4218 15.2791 16.334 15.5 16.334C15.7209 16.334 15.9328 16.4218 16.089 16.578C16.2452 16.7342 16.333 16.9461 16.333 17.167ZM14.667 15.5C14.667 15.7211 14.5792 15.9331 14.4229 16.0894C14.2666 16.2457 14.0546 16.3335 13.8335 16.3335C13.6124 16.3335 13.4004 16.2457 13.2441 16.0894C13.0878 15.9331 13 15.7211 13 15.5C13 15.2789 13.0878 15.0669 13.2441 14.9106C13.4004 14.7543 13.6124 14.6665 13.8335 14.6665C14.0546 14.6665 14.2666 14.7543 14.4229 14.9106C14.5792 15.0669 14.667 15.2789 14.667 15.5ZM18 15.5C18 15.7211 17.9122 15.9331 17.7559 16.0894C17.5996 16.2457 17.3876 16.3335 17.1665 16.3335C16.9454 16.3335 16.7334 16.2457 16.5771 16.0894C16.4208 15.9331 16.333 15.7211 16.333 15.5C16.333 15.2789 16.4208 15.0669 16.5771 14.9106C16.7334 14.7543 16.9454 14.6665 17.1665 14.6665C17.3876 14.6665 17.5996 14.7543 17.7559 14.9106C17.9122 15.0669 18 15.2789 18 15.5Z" fill="black"/>
</svg>
