<svg width="24" height="24" viewBox="0 0 24 24" fill="none" xmlns="http://www.w3.org/2000/svg">
<path d="M3.99991 4.1H4H20C21.0493 4.1 21.9 4.95066 21.9 6V18C21.9 19.0493 21.0493 19.9 20 19.9H4C2.95066 19.9 2.1 19.0493 2.1 18V5.91521C2.14536 4.89929 2.98273 4.09904 3.99991 4.1ZM4.05546 7.78479L3.9 7.68118V7.868V18V18.1H4H20H20.1V18V7.868V7.68118L19.9445 7.78479L12 13.0798L4.05546 7.78479ZM4.8 5.9H4.46972L4.74453 6.08321L11.9445 10.8832L12 10.9202L12.0555 10.8832L19.2555 6.08321L19.5303 5.9H19.2H4.8Z" fill="#0F1828" stroke="white" stroke-width="0.2"/>
</svg>
