<svg width="32" height="32" viewBox="0 0 32 32" fill="none" xmlns="http://www.w3.org/2000/svg">
<path fill-rule="evenodd" clip-rule="evenodd" d="M16.8215 2.66663H15.1748C14.2474 2.66663 13.3582 3.02869 12.704 3.67272C12.1241 4.24356 11.7694 4.99618 11.701 5.79703L11.6897 6.0557C11.677 6.89799 10.9966 7.55508 10.1614 7.555C9.97198 7.55302 9.77526 7.5098 9.59416 7.42836L9.41651 7.33558C7.77544 6.41352 5.64175 6.97831 4.67895 8.6155L3.81323 10.0092C2.8927 11.5739 3.34672 13.5396 4.83269 14.5521L5.03935 14.682C5.54869 14.9711 5.83986 15.4652 5.83986 16C5.83986 16.4917 5.59326 16.9515 5.18198 17.2304L5.04157 17.3166C3.50206 18.1883 2.89547 20.1122 3.66933 21.7125L3.78243 21.9255L4.63221 23.3632C5.0739 24.1444 5.83079 24.7329 6.72598 24.9821C7.51941 25.2031 8.36617 25.142 9.11687 24.8112L9.35424 24.695C9.75376 24.4688 10.1665 24.4145 10.5539 24.5161C10.9413 24.6176 11.2712 24.8666 11.4703 25.2076C11.5801 25.3891 11.6445 25.5762 11.6675 25.7702L11.6789 25.9671C11.6769 27.799 13.243 29.3333 15.1748 29.3333H16.8219C18.646 29.3333 20.16 27.9604 20.3081 26.1885L20.3189 25.9597C20.3178 25.5171 20.4776 25.1365 20.7637 24.8563C21.0497 24.576 21.4382 24.4194 21.8427 24.4213C22.0286 24.4265 22.2329 24.472 22.4222 24.555L22.6037 24.6466C24.1348 25.5125 26.1411 25.0677 27.1745 23.6118L27.3071 23.4093L28.1866 21.9739C28.6601 21.1777 28.7883 20.2423 28.5492 19.3639C28.3373 18.5855 27.8516 17.9062 27.1792 17.4454L26.9566 17.3057C26.5697 17.0865 26.3146 16.761 26.2107 16.3791C26.1068 15.9972 26.1625 15.5905 26.3656 15.249C26.478 15.0567 26.6275 14.8967 26.8069 14.7742L27.1499 14.563C28.5391 13.639 29.0594 11.8202 28.3282 10.2912L28.2523 10.1423C28.2359 10.1035 28.2169 10.0656 28.1954 10.0289L27.3778 8.639C26.4682 7.0922 24.5013 6.49192 22.8613 7.24729L22.6429 7.35781C22.251 7.58246 21.8372 7.63925 21.4476 7.54014C21.058 7.44104 20.7247 7.19419 20.5211 6.85402C20.4166 6.68151 20.3522 6.49435 20.3292 6.30043L20.3178 6.1035C20.3465 5.2662 19.99 4.36904 19.3311 3.70491C18.6721 3.04078 17.7669 2.66625 16.8215 2.66663ZM15.1748 4.59695H16.8219C17.2352 4.59678 17.6305 4.76035 17.9183 5.0504C18.2061 5.34045 18.3618 5.73227 18.35 6.13661L18.3675 6.47268C18.427 6.98641 18.5809 7.43335 18.8242 7.83484C19.2898 8.61282 20.0565 9.18058 20.9525 9.40851C21.8485 9.63644 22.8002 9.50584 23.5978 9.04549L23.7354 8.97683L23.8833 8.91876C24.5345 8.70467 25.3019 8.97563 25.6707 9.60274L26.4505 10.9296L26.4674 10.967L26.5616 11.1451C26.8771 11.8067 26.6135 12.6436 25.9307 13.0348L25.7164 13.1671C25.2619 13.4764 24.9132 13.8495 24.6596 14.2834C24.1961 15.0627 24.0679 15.9982 24.307 16.8765C24.5243 17.675 25.0289 18.3663 25.723 18.826L26.0861 19.0508C26.3422 19.2275 26.5534 19.5228 26.6455 19.8613C26.7495 20.2432 26.6937 20.6499 26.4907 20.9914L25.6315 22.3942L25.5348 22.5422C25.1373 23.101 24.3529 23.3086 23.6917 23.0242L23.2704 22.8133C22.8005 22.6062 22.3408 22.5036 21.8738 22.4914C20.9219 22.4867 20.0284 22.8468 19.3705 23.4913C18.7127 24.1358 18.3451 25.0112 18.3496 25.9227L18.342 26.0681C18.2799 26.8031 17.6183 27.403 16.8219 27.403H15.1748C14.3873 27.403 13.739 26.8192 13.6561 26.0694L13.6292 25.5979C13.5697 25.0842 13.4158 24.6373 13.1725 24.2358C12.7204 23.4612 11.9582 22.886 11.0632 22.6514C10.1682 22.4167 9.21465 22.542 8.41444 22.9995L8.26948 23.069C7.98096 23.1951 7.61112 23.2218 7.26461 23.1253C6.87365 23.0165 6.54309 22.7595 6.34607 22.4112L5.50707 20.9932L5.43202 20.8511C5.11421 20.192 5.37809 19.355 6.06189 18.9674L6.26963 18.8395C7.24554 18.1787 7.8101 17.126 7.8101 16C7.8101 14.8572 7.22933 13.7955 6.27198 13.1613L5.92436 12.9456C5.31013 12.5262 5.11173 11.6672 5.50842 10.9927L6.37414 9.59895C6.80658 8.86416 7.73844 8.6175 8.46924 9.02777L8.72573 9.1603C9.20478 9.37719 9.67454 9.48042 10.1511 9.48527C11.9996 9.4855 13.5112 8.09446 13.6492 6.32196L13.6671 5.91544C13.6941 5.60983 13.8484 5.28258 14.1005 5.03439C14.3849 4.75437 14.7715 4.59695 15.1748 4.59695ZM16.0044 11.6424C13.548 11.6424 11.5567 13.5933 11.5567 16C11.5567 18.4066 13.548 20.3575 16.0044 20.3575C18.4607 20.3575 20.452 18.4066 20.452 16C20.452 13.5933 18.4607 11.6424 16.0044 11.6424ZM16.0044 13.5727C17.3726 13.5727 18.4818 14.6594 18.4818 16C18.4818 17.3405 17.3726 18.4272 16.0044 18.4272C14.6361 18.4272 13.5269 17.3405 13.5269 16C13.5269 14.6594 14.6361 13.5727 16.0044 13.5727Z" fill="#222222"/>
</svg>
