<svg width="24" height="24" viewBox="0 0 24 24" fill="none" xmlns="http://www.w3.org/2000/svg">
<rect x="2.33325" y="2.33337" width="19.3333" height="19.3333" rx="4" stroke="black" stroke-width="2"/>
<path d="M16.9435 7.28406C16.9435 7.28406 18.1577 6.81062 18.0565 7.9604C18.0228 8.43384 17.7193 10.0909 17.4832 11.8832L16.6737 17.1925C16.6737 17.1925 16.6063 17.9702 15.9992 18.1055C15.3921 18.2408 14.4815 17.6321 14.3128 17.4968C14.1779 17.3954 11.7834 15.8736 10.9402 15.1296C10.7041 14.9267 10.4343 14.5209 10.9739 14.0475L14.5152 10.6658C14.9199 10.26 15.3247 9.31309 13.6383 10.4629L8.91659 13.6755C8.91659 13.6755 8.37697 14.0137 7.36519 13.7093L5.17294 13.033C5.17294 13.033 4.3635 12.5257 5.7463 12.0184C9.11897 10.429 13.2673 8.80581 16.9435 7.28406Z" fill="black"/>
</svg>
