<svg width="36" height="36" viewBox="0 0 36 36" fill="none" xmlns="http://www.w3.org/2000/svg">
<rect width="36" height="36" fill="white"/>
<path d="M13.6519 8C9.6289 8 8 9.6289 8 13.6519V22.3481C8 26.3711 9.6289 28 13.6519 28H18.5331V20.1812H16.4656V17.3662H18.5331V14.9612C18.5331 13.0717 19.7547 11.3369 22.5688 11.3369C23.7081 11.3369 24.5506 11.4463 24.5506 11.4463L24.4844 14.075C24.4844 14.075 23.6251 14.0669 22.6875 14.0669C21.6727 14.0669 21.51 14.5344 21.51 15.3106V17.3663H24.565L24.4319 20.1813H21.51V28H22.3481C26.3711 28 28 26.3711 28 22.3481V13.6519C28 9.62892 26.3711 8.00002 22.3481 8.00002L13.6519 8Z" fill="black"/>
</svg>
