<svg width="37" height="36" viewBox="0 0 37 36" fill="none" xmlns="http://www.w3.org/2000/svg">
<path fill-rule="evenodd" clip-rule="evenodd" d="M11.4952 3.00015H25.4902C30.5902 3.00015 33.5002 5.88015 33.5002 10.9952V25.0052C33.5002 30.0902 30.6052 33.0002 25.5052 33.0002H11.4952C6.38024 33.0002 3.50024 30.0902 3.50024 25.0052V10.9952C3.50024 5.88015 6.38024 3.00015 11.4952 3.00015ZM19.7302 19.2452H23.9902C24.6802 19.2302 25.2352 18.6752 25.2352 17.9852C25.2352 17.2952 24.6802 16.7402 23.9902 16.7402H19.7302V12.5102C19.7302 11.8202 19.1752 11.2652 18.4852 11.2652C17.7952 11.2652 17.2402 11.8202 17.2402 12.5102V16.7402H12.9952C12.6652 16.7402 12.3502 16.8752 12.1102 17.1002C11.8852 17.3402 11.7502 17.6537 11.7502 17.9852C11.7502 18.6752 12.3052 19.2302 12.9952 19.2452H17.2402V23.4902C17.2402 24.1802 17.7952 24.7352 18.4852 24.7352C19.1752 24.7352 19.7302 24.1802 19.7302 23.4902V19.2452Z" fill="#818DBB"/>
</svg>
