<svg width="48" height="48" viewBox="0 0 48 48" fill="none" xmlns="http://www.w3.org/2000/svg">
<path fill-rule="evenodd" clip-rule="evenodd" d="M15.3324 44H32.6656C39.4462 44 44 39.2438 44 32.1666V15.8334C44 8.75623 39.4462 4 32.6676 4H15.3324C8.55379 4 4 8.75623 4 15.8334V32.1666C4 39.2438 8.55379 44 15.3324 44ZM16.9977 22C14.2404 22 12 19.7565 12 17C12 14.2435 14.2404 12 16.9977 12C19.753 12 21.9954 14.2435 21.9954 17C21.9954 19.7565 19.753 22 16.9977 22ZM39.6416 29.8679C40.3113 31.5851 39.9634 33.6491 39.2474 35.3498C38.3987 37.3726 36.7737 38.904 34.7264 39.5728C33.8173 39.87 32.864 40 31.9128 40H15.0573C13.38 40 11.8958 39.5975 10.679 38.8483C9.91678 38.3777 9.78203 37.2921 10.3472 36.5882C11.2924 35.4118 12.2256 34.2312 13.1668 33.0402C14.9608 30.7616 16.1695 30.1011 17.5129 30.6811C18.0579 30.9205 18.605 31.2797 19.1681 31.6594C20.6684 32.6791 22.754 34.0805 25.5012 32.5593C27.3812 31.5064 28.4716 29.7003 29.4212 28.1274L29.437 28.1011C29.5043 27.9908 29.571 27.8805 29.6375 27.7704C29.9566 27.2424 30.2715 26.7215 30.6276 26.2415C31.0741 25.6409 32.7293 23.7626 34.8732 25.1001C36.2388 25.9422 37.3871 27.0815 38.6159 28.3013C39.0845 28.7678 39.4184 29.2982 39.6416 29.8679Z" fill="white"/>
</svg>
